<svg xmlns="http://www.w3.org/2000/svg" width="106" height="65" viewBox="0 0 106 65" version="1.1">
	<path d="M 29.754 1.084 C 16.916 4.111, 0 18.247, 0 25.950 C 0 27.078, 0.450 28, 1 28 C 1.550 28, 2.002 26.988, 2.004 25.750 C 2.012 20.889, 9.172 12.737, 18.259 7.243 C 27.582 1.607, 41.275 -0.507, 45.539 3.033 C 47.892 4.985, 47.316 11.972, 44.306 18.013 C 42.824 20.987, 38.564 26.587, 34.838 30.460 L 28.064 37.500 28.032 22.750 C 28.012 13.605, 27.620 8, 27 8 C 25.850 8, 25.794 9.014, 25.992 26.190 L 26.138 38.881 21.819 41.649 C 19.443 43.171, 17.313 44.548, 17.083 44.708 C 16.854 44.869, 16.958 45.291, 17.313 45.646 C 17.668 46.002, 19.759 45.102, 21.958 43.646 C 24.158 42.191, 26.178 41, 26.448 41 C 26.718 41, 27.080 46.513, 27.253 53.250 L 27.568 65.500 27.784 52.616 L 28 39.732 34.759 32.616 C 52.111 14.347, 53.435 -0.276, 37.703 0.100 C 35.391 0.156, 31.814 0.598, 29.754 1.084 M 76.750 12.571 C 76.338 12.990, 75.957 14.946, 75.904 16.917 C 75.731 23.377, 73.589 30.524, 71.908 30.249 C 71.065 30.111, 69.082 31.349, 67.501 32.999 C 63.999 36.654, 63.224 36.721, 61.990 33.474 C 60.062 28.402, 55 29.595, 55 35.122 C 55 38.454, 57.253 38.986, 60.171 36.345 C 61.265 35.355, 62 35.154, 62 35.845 C 62 37.511, 64.050 37.265, 66.171 35.345 C 67.821 33.852, 68 33.846, 68 35.286 C 68 36.164, 68.470 37.172, 69.044 37.527 C 70.766 38.592, 72.928 36.025, 74.438 31.122 L 75.861 26.500 76.075 35 C 76.283 43.213, 76.319 43.061, 77.154 30.500 C 78.076 16.613, 77.957 11.344, 76.750 12.571 M 81.543 27.931 C 81.226 28.443, 81.425 29.144, 81.984 29.490 C 82.543 29.835, 83 29.416, 83 28.559 C 83 26.802, 82.400 26.544, 81.543 27.931 M 47.329 31.584 C 46.840 32.859, 46.557 32.908, 45.876 31.834 C 45.328 30.969, 45.025 31.817, 45.015 34.250 C 45.007 36.313, 45.450 38, 46 38 C 46.550 38, 47 37.579, 47 37.065 C 47 36.551, 47.464 34.909, 48.032 33.417 C 48.990 30.896, 49.156 30.831, 50.369 32.490 C 51.087 33.472, 52.310 34.024, 53.087 33.717 C 54.128 33.305, 54.039 33.137, 52.750 33.079 C 51.788 33.036, 51 32.325, 51 31.500 C 51 29.506, 48.102 29.572, 47.329 31.584 M 93.717 32.724 C 92.731 34.264, 92.065 34.750, 92.220 33.816 C 92.374 32.889, 92.082 31.989, 91.572 31.816 C 90.678 31.511, 90.685 55.019, 91.580 55.913 C 91.811 56.144, 92 52.415, 92 47.627 C 92 40.781, 92.445 38.049, 94.081 34.841 C 95.515 32.031, 96.484 31.084, 97.196 31.796 C 97.909 32.509, 97.753 33.788, 96.697 35.907 C 95.853 37.598, 95.543 39.218, 96.009 39.506 C 96.475 39.794, 97.123 39.188, 97.449 38.161 C 97.775 37.133, 99.590 35.459, 101.482 34.440 C 103.373 33.421, 104.728 32.395, 104.492 32.158 C 104.256 31.922, 102.953 32.456, 101.598 33.344 C 99.242 34.887, 99.120 34.861, 98.817 32.739 C 98.357 29.521, 95.773 29.514, 93.717 32.724 M 81.719 31.704 C 80.635 33.377, 81.940 38, 83.498 38 C 84.202 38, 85.841 37.064, 87.139 35.920 L 89.500 33.840 87.027 35.420 C 83.591 37.616, 83.170 37.449, 82.813 33.750 C 82.621 31.751, 82.199 30.964, 81.719 31.704 M 56.476 34.075 C 56.114 35.217, 56.073 36.406, 56.385 36.718 C 57.218 37.552, 60 34.982, 60 33.378 C 60 31.215, 57.209 31.768, 56.476 34.075 M 70.015 34.750 C 70.027 36.893, 70.245 37.169, 71 36 C 72.264 34.043, 72.264 32, 71 32 C 70.450 32, 70.007 33.237, 70.015 34.750" stroke="none" fill="#000000" fill-rule="evenodd"/>
</svg>